<svg xmlns="http://www.w3.org/2000/svg" xmlns:xlink="http://www.w3.org/1999/xlink" version="1.1" width="256" height="256" viewBox="0 0 256 256" xml:space="preserve">

<defs>
</defs>
<g style="stroke: none; stroke-width: 0; stroke-dasharray: none; stroke-linecap: butt; stroke-linejoin: miter; stroke-miterlimit: 10; fill: none; fill-rule: nonzero; opacity: 1;" transform="translate(18.12918287937744 18.12918287937741) scale(2.43 2.43)" >
	<rect x="33.89" y="66.94" rx="0" ry="0" width="22.22" height="9.81" style="stroke: none; stroke-width: 1; stroke-dasharray: none; stroke-linecap: butt; stroke-linejoin: miter; stroke-miterlimit: 10; fill: rgb(143,143,139); fill-rule: nonzero; opacity: 1;" transform=" matrix(1 0 0 1 0 0) "/>
	<path d="M 64.074 83.089 H 25.926 v -1.597 c 0 -2.621 2.124 -4.745 4.745 -4.745 h 28.658 c 2.621 0 4.745 2.124 4.745 4.745 V 83.089 z" style="stroke: none; stroke-width: 1; stroke-dasharray: none; stroke-linecap: butt; stroke-linejoin: miter; stroke-miterlimit: 10; fill: rgb(203,201,194); fill-rule: nonzero; opacity: 1;" transform=" matrix(1 0 0 1 0 0) " stroke-linecap="round" />
	<path d="M 55.181 66.935 H 82.98 c 3.325 0 6.02 -2.695 6.02 -6.02 V 12.931 c 0 -3.325 -2.695 -6.02 -6.02 -6.02 H 7.02 C 3.695 6.911 1 9.606 1 12.931 v 47.984 c 0 3.325 2.695 6.02 6.02 6.02 H 55.181" style="stroke: none; stroke-width: 1; stroke-dasharray: none; stroke-linecap: butt; stroke-linejoin: miter; stroke-miterlimit: 10; fill: rgb(172,206,255); fill-rule: nonzero; opacity: 1;" transform=" matrix(1 0 0 1 0 0) " stroke-linecap="round" />
	<path d="M 56.108 77.747 H 33.892 c -0.552 0 -1 -0.447 -1 -1 v -9.812 c 0 -0.553 0.448 -1 1 -1 h 22.217 c 0.553 0 1 0.447 1 1 v 9.812 C 57.108 77.3 56.661 77.747 56.108 77.747 z M 34.892 75.747 h 20.217 v -7.812 H 34.892 V 75.747 z" style="stroke: none; stroke-width: 1; stroke-dasharray: none; stroke-linecap: butt; stroke-linejoin: miter; stroke-miterlimit: 10; fill: rgb(0,0,0); fill-rule: nonzero; opacity: 1;" transform=" matrix(1 0 0 1 0 0) " stroke-linecap="round" />
	<path d="M 64.074 84.089 H 25.926 c -0.552 0 -1 -0.447 -1 -1 v -1.597 c 0 -3.168 2.577 -5.745 5.745 -5.745 h 28.658 c 3.168 0 5.745 2.577 5.745 5.745 v 1.597 C 65.074 83.642 64.627 84.089 64.074 84.089 z M 26.926 82.089 h 36.148 v -0.597 c 0 -2.065 -1.68 -3.745 -3.745 -3.745 H 30.671 c -2.065 0 -3.745 1.68 -3.745 3.745 V 82.089 z" style="stroke: none; stroke-width: 1; stroke-dasharray: none; stroke-linecap: butt; stroke-linejoin: miter; stroke-miterlimit: 10; fill: rgb(0,0,0); fill-rule: nonzero; opacity: 1;" transform=" matrix(1 0 0 1 0 0) " stroke-linecap="round" />
	<path d="M 82.98 66.935 H 55.181 H 7.02 c -3.325 0 -6.02 -2.695 -6.02 -6.02 v -5.546 h 88 v 5.546 C 89 64.24 86.305 66.935 82.98 66.935" style="stroke: none; stroke-width: 1; stroke-dasharray: none; stroke-linecap: butt; stroke-linejoin: miter; stroke-miterlimit: 10; fill: rgb(203,201,194); fill-rule: nonzero; opacity: 1;" transform=" matrix(1 0 0 1 0 0) " stroke-linecap="round" />
	<path d="M 46.814 62.372 h -3.629 c -0.552 0 -1 -0.447 -1 -1 s 0.448 -1 1 -1 h 3.629 c 0.553 0 1 0.447 1 1 S 47.367 62.372 46.814 62.372 z" style="stroke: none; stroke-width: 1; stroke-dasharray: none; stroke-linecap: butt; stroke-linejoin: miter; stroke-miterlimit: 10; fill: rgb(0,0,0); fill-rule: nonzero; opacity: 1;" transform=" matrix(1 0 0 1 0 0) " stroke-linecap="round" />
	<path d="M 82.979 67.936 H 7.02 c -3.871 0 -7.02 -3.149 -7.02 -7.021 V 12.931 c 0 -3.871 3.149 -7.02 7.02 -7.02 h 75.959 c 3.871 0 7.021 3.149 7.021 7.02 v 47.984 C 90 64.786 86.851 67.936 82.979 67.936 z M 7.02 7.911 c -2.768 0 -5.02 2.252 -5.02 5.02 v 47.984 c 0 2.769 2.252 5.021 5.02 5.021 h 75.959 c 2.769 0 5.021 -2.252 5.021 -5.021 V 12.931 c 0 -2.768 -2.252 -5.02 -5.021 -5.02 H 7.02 z" style="stroke: none; stroke-width: 1; stroke-dasharray: none; stroke-linecap: butt; stroke-linejoin: miter; stroke-miterlimit: 10; fill: rgb(0,0,0); fill-rule: nonzero; opacity: 1;" transform=" matrix(1 0 0 1 0 0) " stroke-linecap="round" />
	<path d="M 82.979 67.936 H 7.02 c -3.871 0 -7.02 -3.149 -7.02 -7.021 v -5.546 c 0 -0.553 0.448 -1 1 -1 h 88 c 0.553 0 1 0.447 1 1 v 5.546 C 90 64.786 86.851 67.936 82.979 67.936 z M 2 56.369 v 4.546 c 0 2.769 2.252 5.021 5.02 5.021 h 75.959 c 2.769 0 5.021 -2.252 5.021 -5.021 v -4.546 H 2 z" style="stroke: none; stroke-width: 1; stroke-dasharray: none; stroke-linecap: butt; stroke-linejoin: miter; stroke-miterlimit: 10; fill: rgb(0,0,0); fill-rule: nonzero; opacity: 1;" transform=" matrix(1 0 0 1 0 0) " stroke-linecap="round" />
	<polygon points="51.52,43.23 43.48,35.19 39.18,39.48 33.53,20.29 52.72,25.95 48.43,30.24 56.47,38.28 " style="stroke: none; stroke-width: 1; stroke-dasharray: none; stroke-linecap: butt; stroke-linejoin: miter; stroke-miterlimit: 10; fill: rgb(255,255,255); fill-rule: nonzero; opacity: 1;" transform="  matrix(1 0 0 1 0 0) "/>
	<path d="M 51.517 44.234 c -0.256 0 -0.512 -0.098 -0.707 -0.293 l -7.334 -7.334 l -3.585 3.585 c -0.25 0.25 -0.613 0.347 -0.954 0.262 c -0.342 -0.087 -0.612 -0.348 -0.712 -0.687 L 32.568 20.57 c -0.104 -0.351 -0.007 -0.731 0.252 -0.99 c 0.258 -0.259 0.638 -0.356 0.99 -0.252 l 19.196 5.657 c 0.339 0.1 0.6 0.37 0.687 0.712 c 0.087 0.342 -0.012 0.705 -0.262 0.954 l -3.585 3.585 l 7.335 7.334 c 0.188 0.188 0.293 0.442 0.293 0.707 s -0.105 0.52 -0.293 0.707 l -4.957 4.956 C 52.028 44.136 51.772 44.234 51.517 44.234 z M 43.476 34.193 c 0.256 0 0.512 0.098 0.707 0.293 l 7.334 7.334 l 3.543 -3.542 l -7.335 -7.334 c -0.188 -0.188 -0.293 -0.442 -0.293 -0.707 s 0.105 -0.52 0.293 -0.707 l 3.102 -3.102 l -15.821 -4.663 l 4.662 15.822 l 3.102 -3.102 C 42.964 34.291 43.22 34.193 43.476 34.193 z" style="stroke: none; stroke-width: 1; stroke-dasharray: none; stroke-linecap: butt; stroke-linejoin: miter; stroke-miterlimit: 10; fill: rgb(0,0,0); fill-rule: nonzero; opacity: 1;" transform=" matrix(1 0 0 1 0 0) " stroke-linecap="round" />
</g>
</svg>